<?xml version="1.0" encoding="UTF-8" standalone="no"?>
<!-- Created with Inkscape (http://www.inkscape.org/) -->

<svg
   xmlns:dc="http://purl.org/dc/elements/1.1/"
   xmlns:cc="http://creativecommons.org/ns#"
   xmlns:rdf="http://www.w3.org/1999/02/22-rdf-syntax-ns#"
   xmlns:svg="http://www.w3.org/2000/svg"
   xmlns="http://www.w3.org/2000/svg"
   xmlns:sodipodi="http://sodipodi.sourceforge.net/DTD/sodipodi-0.dtd"
   xmlns:inkscape="http://www.inkscape.org/namespaces/inkscape"
   width="48"
   height="24"
   viewBox="0 0 12.7 6.3500002"
   version="1.1"
   id="svg8"
   inkscape:version="0.92.3 (2405546, 2018-03-11)"
   sodipodi:docname="logo_idnet_white.svg">
  <defs
     id="defs2" />
  <sodipodi:namedview
     id="base"
     pagecolor="#ffffff"
     bordercolor="#666666"
     borderopacity="1.0"
     inkscape:pageopacity="0.0"
     inkscape:pageshadow="2"
     inkscape:zoom="22.4"
     inkscape:cx="33.784196"
     inkscape:cy="9.1273127"
     inkscape:document-units="mm"
     inkscape:current-layer="g23225"
     showgrid="false"
     units="px"
     inkscape:window-width="1920"
     inkscape:window-height="1017"
     inkscape:window-x="-8"
     inkscape:window-y="-8"
     inkscape:window-maximized="1" />
  <metadata
     id="metadata5">
    <rdf:RDF>
      <cc:Work
         rdf:about="">
        <dc:format>image/svg+xml</dc:format>
        <dc:type
           rdf:resource="http://purl.org/dc/dcmitype/StillImage" />
        <dc:title />
      </cc:Work>
    </rdf:RDF>
  </metadata>
  <g
     inkscape:label="Camada 1"
     inkscape:groupmode="layer"
     id="layer1"
     transform="translate(0,-290.64998)">
    <flowRoot
       xml:space="preserve"
       id="flowRoot23162"
       style="font-style:normal;font-weight:normal;font-size:2.66666675px;line-height:1.25;font-family:sans-serif;letter-spacing:0px;word-spacing:0px;fill:#000000;fill-opacity:1;stroke:none"
       transform="scale(0.26458333)"><flowRegion
         id="flowRegion23164"><rect
           id="rect23166"
           width="169.70563"
           height="59.598999"
           x="441.43668"
           y="538.65149" /></flowRegion><flowPara
         id="flowPara23168" /></flowRoot>    <g
       id="g23225"
       transform="translate(-0.0492192,-0.64370912)"
       style="fill:#ffffff;fill-opacity:1">
      <path
         transform="matrix(0.12239987,0,0,0.12239987,-6.0455974,280.57108)"
         style="fill:#ffffff;fill-opacity:1;stroke:none;stroke-width:0.26458332px;stroke-linecap:butt;stroke-linejoin:miter;stroke-opacity:1"
         d="m 55.792512,119.86712 c 1.098726,0.86877 2.337416,1.31764 4.142679,0.0668 l 5.345391,-6.21402 c 0.847162,-0.55479 1.667174,-1.17746 3.207234,0 l 5.87993,3.54132 c 1.751597,0.59796 3.550177,0.82005 5.479024,0 l 5.946748,-3.80859 c 0.935443,-0.46098 1.870887,-0.80696 2.80633,0.13364 l 3.54132,4.00904 c 0.275031,-0.89515 1.665622,-2.12559 1.80407,-2.20498 0.109309,-0.11882 2.09687,-0.79855 3.006783,-0.73499 l -6.614922,-7.08264 c -3.029086,-2.04915 -4.947135,-1.24134 -6.748555,-0.13363 l -3.541321,2.20497 c -1.852149,1.36889 -3.782841,1.48108 -5.813112,0 L 70.225067,107.105 c -2.083888,-1.14686 -4.244217,-1.68219 -6.681737,0 -2.661559,2.86758 -7.681962,8.07842 -7.984676,8.60274 -0.321765,0.41761 -1.347414,2.75279 0.233858,4.15938 z"
         id="path826"
         inkscape:connector-curvature="0"
         sodipodi:nodetypes="ccccccccccccccccccc" />
      <circle
         transform="matrix(0.12239987,0,0,0.12239987,-6.0455974,280.57108)"
         style="fill:#ffffff;fill-opacity:1;fill-rule:nonzero;stroke:none;stroke-width:0.5291667;stroke-linecap:round;stroke-linejoin:round;stroke-miterlimit:4;stroke-dasharray:none;stroke-opacity:1;paint-order:normal"
         id="path828"
         cx="96.313065"
         cy="118.09915"
         r="3.0395718" />
      <path
         style="fill:#ffffff;fill-opacity:1;stroke:none;stroke-width:0.05291667;stroke-linecap:butt;stroke-linejoin:miter;stroke-miterlimit:4;stroke-dasharray:none;stroke-opacity:1"
         d="m 71.119432,11.185264 c -0.79509,1.567517 0.659082,3.028611 2.539062,2.138156 L 84.649952,8.5793848 c 1.088397,-0.703899 1.890251,-1.480442 -0.133636,-2.973375 -3.371607,-2.29593 -8.075685,-1.78472 -9.705224,-0.0835 z"
         id="path23110-2"
         inkscape:connector-curvature="0"
         sodipodi:nodetypes="cccccc"
         transform="matrix(0.12239987,0,0,0.12239987,-2.743998,293.04186)" />
      <g
         aria-label="idNet"
         transform="matrix(0.02650287,0,0,0.02650287,-3.5125042,280.9618)"
         style="font-style:normal;font-weight:normal;font-size:2.66666675px;line-height:1.25;font-family:sans-serif;letter-spacing:0px;word-spacing:0px;fill:#ffffff;fill-opacity:1;stroke:none"
         id="flowRoot23170">
        <path
           d="m 448.25781,498.22858 h -5.52083 v -5.07812 h 5.52083 z m -0.3125,33.95834 h -4.89583 v -29.08855 h 4.89583 z"
           style="fill:#ffffff;fill-opacity:1"
           id="path827" />
        <path
           d="m 481.27865,532.18692 h -4.89584 v -3.04688 q -2.10937,1.82292 -4.40104,2.83854 -2.29166,1.01563 -4.97396,1.01563 -5.20833,0 -8.28125,-4.01042 -3.04687,-4.01042 -3.04687,-11.11979 0,-3.69792 1.04167,-6.58854 1.0677,-2.89063 2.86458,-4.92188 1.77083,-1.97917 4.11458,-3.02083 2.36979,-1.04167 4.89584,-1.04167 2.29166,0 4.0625,0.49479 1.77083,0.46875 3.72395,1.48438 v -12.60417 h 4.89584 z m -4.89584,-7.16146 v -16.69271 q -1.97916,-0.88542 -3.54166,-1.22396 -1.5625,-0.33854 -3.41146,-0.33854 -4.11458,0 -6.40625,2.86458 -2.29167,2.86459 -2.29167,8.125 0,5.18229 1.77084,7.89063 1.77083,2.68229 5.67708,2.68229 2.08333,0 4.21875,-0.91146 2.13542,-0.9375 3.98437,-2.39583 z"
           style="fill:#ffffff;fill-opacity:1"
           id="path829" />
        <path
           d="m 526.30469,532.18692 h -9.63542 l -16.45833,-26.61459 v 26.61459 h -9.16667 v -38.77605 h 11.95313 l 14.14062,22.21355 v -22.21355 h 9.16667 z"
           style="font-style:normal;font-variant:normal;font-weight:bold;font-stretch:normal;font-size:53.33333588px;font-family:sans-serif;-inkscape-font-specification:'sans-serif, Bold';font-variant-ligatures:normal;font-variant-caps:normal;font-variant-numeric:normal;font-feature-settings:normal;text-align:start;writing-mode:lr-tb;text-anchor:start;fill:#ffffff;fill-opacity:1"
           id="path831" />
        <path
           d="m 564.53386,519.29629 h -21.45833 q 0.20833,3.4375 2.60417,5.26042 2.42187,1.82291 7.10937,1.82291 2.96875,0 5.75521,-1.0677 2.78646,-1.06771 4.40104,-2.29167 h 1.04167 v 7.52604 q -3.17709,1.27604 -5.98959,1.84896 -2.8125,0.57292 -6.22395,0.57292 -8.80209,0 -13.48959,-3.95834 -4.6875,-3.95833 -4.6875,-11.27604 0,-7.23958 4.42709,-11.45833 4.45312,-4.2448 12.1875,-4.2448 7.13541,0 10.72916,3.6198 3.59375,3.59375 3.59375,10.36458 z m -9.32291,-5.49479 q -0.0781,-2.94271 -1.45834,-4.42708 -1.38021,-1.48438 -4.29687,-1.48438 -2.70834,0 -4.45313,1.40625 -1.74479,1.40625 -1.95312,4.50521 z"
           style="font-style:normal;font-variant:normal;font-weight:bold;font-stretch:normal;font-size:53.33333588px;font-family:sans-serif;-inkscape-font-specification:'sans-serif, Bold';font-variant-ligatures:normal;font-variant-caps:normal;font-variant-numeric:normal;font-feature-settings:normal;text-align:start;writing-mode:lr-tb;text-anchor:start;fill:#ffffff;fill-opacity:1"
           id="path833" />
        <path
           d="m 589.84636,531.9265 q -1.51042,0.39062 -3.20312,0.59896 -1.69271,0.23437 -4.14063,0.23437 -5.46875,0 -8.15104,-2.21354 -2.65625,-2.21354 -2.65625,-7.57812 v -13.67188 h -3.85417 v -6.35417 h 3.85417 v -8.35937 h 9.375 v 8.35937 h 8.77604 v 6.35417 h -8.77604 v 10.36458 q 0,1.53646 0.026,2.6823 0.026,1.14583 0.41667,2.05729 0.36458,0.91146 1.27604,1.45833 0.9375,0.52083 2.70833,0.52083 0.72917,0 1.90104,-0.3125 1.19792,-0.3125 1.66667,-0.57291 h 0.78125 z"
           style="font-style:normal;font-variant:normal;font-weight:bold;font-stretch:normal;font-size:53.33333588px;font-family:sans-serif;-inkscape-font-specification:'sans-serif, Bold';font-variant-ligatures:normal;font-variant-caps:normal;font-variant-numeric:normal;font-feature-settings:normal;text-align:start;writing-mode:lr-tb;text-anchor:start;fill:#ffffff;fill-opacity:1"
           id="path835" />
      </g>
    </g>
  </g>
</svg>
